<svg width="404" height="293" viewBox="0 0 404 293" fill="none" xmlns="http://www.w3.org/2000/svg">
<g clip-path="url(#clip0_2122_3136)">
<path d="M404 292.203H0" stroke="black" stroke-miterlimit="10"/>
<path d="M297.297 23.421C292.416 23.421 288.439 27.404 288.439 32.2917C288.439 37.1795 292.416 41.1625 297.297 41.1625H340.513C346.914 41.1625 352.125 35.9438 352.125 29.5334C352.125 23.1231 346.914 17.9043 340.513 17.9043C339.819 17.9043 339.125 17.9705 338.442 18.0919L337.914 18.1912L337.693 17.6947C335.016 11.6154 329.012 7.6875 322.392 7.6875C315.154 7.6875 308.776 12.3104 306.517 19.1842L306.341 19.7359L305.768 19.6476C303.124 19.2504 300.634 20.7288 299.665 23.1562L299.456 23.6747L298.905 23.5754C298.376 23.4761 297.836 23.432 297.308 23.432L297.297 23.421Z" fill="#E8E8E8"/>
<path d="M20.9631 68.3077C15.8295 68.3077 11.6543 72.4894 11.6543 77.6309C11.6543 82.7724 15.8295 86.943 20.9631 86.943H66.3722C73.1031 86.943 78.5782 81.4594 78.5782 74.7181C78.5782 67.9767 73.1031 62.4932 66.3722 62.4932C65.6451 62.4932 64.907 62.5594 64.2019 62.6808L63.6401 62.7801L63.4088 62.2615C60.5996 55.8732 54.2873 51.7578 47.325 51.7578C39.7238 51.7578 33.0149 56.6125 30.6464 63.8393L30.4591 64.413L29.8532 64.3247C27.0771 63.9165 24.4662 65.4612 23.4417 68.0098L23.2214 68.5615L22.6375 68.4512C22.0757 68.3519 21.5139 68.2967 20.9631 68.2967V68.3077Z" fill="#E8E8E8"/>
<path d="M283.339 138.963C270.009 130.887 261.395 111.534 261.395 95.7015C261.395 75.1244 278.04 58.4531 298.586 58.4531C319.131 58.4531 335.776 75.1244 335.776 95.7015" fill="white"/>
<path d="M283.339 138.963C270.009 130.887 261.395 111.534 261.395 95.7015C261.395 75.1244 278.04 58.4531 298.586 58.4531C319.131 58.4531 335.776 75.1244 335.776 95.7015" stroke="black" stroke-miterlimit="10"/>
<path d="M321.709 111.227C346.265 119.899 363.858 143.333 363.858 170.895C363.858 205.826 335.579 234.148 300.701 234.148C265.824 234.148 237.545 205.826 237.545 170.895C237.545 158.25 241.246 146.467 247.636 136.592" fill="white"/>
<path d="M321.709 111.227C346.265 119.899 363.858 143.333 363.858 170.895C363.858 205.826 335.579 234.148 300.701 234.148C265.824 234.148 237.545 205.826 237.545 170.895C237.545 158.25 241.246 146.467 247.636 136.592" stroke="black" stroke-miterlimit="10"/>
<path d="M255.238 165.698C250.655 157.125 248.066 147.427 248.066 137.155C248.066 123.176 252.858 110.256 260.966 99.7852" fill="white"/>
<path d="M255.238 165.698C250.655 157.125 248.066 147.427 248.066 137.155C248.066 123.176 252.858 110.256 260.966 99.7852" stroke="black" stroke-miterlimit="10"/>
<path d="M313.006 87.7227C337.352 89.6204 355.54 110.926 353.645 135.298L313.006 87.7227Z" fill="white"/>
<path d="M313.006 87.7227C337.352 89.6204 355.54 110.926 353.645 135.298" stroke="black" stroke-miterlimit="10"/>
<path d="M295.688 204.656L278.305 186.098" stroke="black" stroke-miterlimit="10"/>
<path d="M313.887 202.363L295.357 219.774" stroke="black" stroke-miterlimit="10"/>
<path d="M295.688 179.699V293" stroke="black" stroke-miterlimit="10"/>
<path d="M142.859 208.308C135.974 211.32 128.659 212.886 121.08 212.886C91.1814 212.886 66.8574 188.514 66.8574 158.547C66.8574 138.059 78.3805 119.423 96.4471 110.178V109.185C96.4471 87.9675 107.111 68.0414 124.55 56.1365C122.269 51.0612 121.08 45.5887 121.08 40.061C121.08 18.2592 138.783 0.550781 160.54 0.550781C182.297 0.550781 199.967 18.2592 199.967 40.0389C199.967 45.5776 198.81 51.0501 196.519 56.1144C213.969 68.0193 224.622 87.9455 224.622 109.162V110.155C242.699 119.401 254.222 138.037 254.222 158.525C254.222 188.503 229.887 212.864 199.967 212.864C192.619 212.864 185.47 211.408 178.75 208.517" fill="white"/>
<path d="M142.859 208.308C135.974 211.32 128.659 212.886 121.08 212.886C91.1814 212.886 66.8574 188.514 66.8574 158.547C66.8574 138.059 78.3805 119.423 96.4472 110.178V109.185C96.4472 87.9675 107.111 68.0414 124.55 56.1365C122.269 51.0612 121.08 45.5887 121.08 40.061C121.08 18.2592 138.783 0.550781 160.54 0.550781C182.297 0.550781 199.967 18.2592 199.967 40.0389C199.967 45.5776 198.81 51.0501 196.519 56.1144C213.969 68.0193 224.622 87.9455 224.622 109.162V110.155C242.699 119.401 254.222 138.037 254.222 158.525C254.222 188.503 229.887 212.864 199.967 212.864C192.619 212.864 185.47 211.408 178.75 208.517" stroke="black" stroke-miterlimit="10"/>
<path d="M218.278 209.876C214.818 212.37 209.982 211.586 207.493 208.122C205.003 204.657 205.785 199.814 209.244 197.32L218.278 209.876Z" fill="#374EA1"/>
<path d="M157.005 126.653L138.332 106.727" stroke="black" stroke-miterlimit="10"/>
<path d="M176.548 124.203L156.652 142.894" stroke="black" stroke-miterlimit="10"/>
<path d="M157.004 99.8516V292.118" stroke="black" stroke-miterlimit="10"/>
<path d="M271.926 156.649C268.313 156.649 264.82 157.201 261.538 158.205C261.593 157.377 261.659 156.55 261.659 155.711C261.659 136.094 245.784 120.195 226.197 120.195C206.61 120.195 190.736 136.094 190.736 155.711C190.736 156.384 190.802 157.046 190.835 157.72C188.103 157.046 185.272 156.649 182.331 156.649C162.744 156.649 146.869 172.548 146.869 192.165C146.869 211.783 162.744 227.682 182.331 227.682C183.939 227.682 185.503 227.538 187.057 227.329C195.209 240.977 210.103 250.112 227.123 250.112C244.143 250.112 259.048 240.977 267.189 227.329C268.742 227.538 270.307 227.682 271.915 227.682C291.502 227.682 307.376 211.783 307.376 192.165C307.376 172.548 291.502 156.649 271.915 156.649H271.926Z" fill="white" stroke="black" stroke-miterlimit="10"/>
<path d="M245.321 202.449L226.66 221.14L207.998 202.449" fill="white"/>
<path d="M245.321 202.449L226.66 221.14L207.998 202.449" stroke="black" stroke-miterlimit="10"/>
<path d="M226.66 220.203V292.946" stroke="black" stroke-miterlimit="10"/>
<path d="M226.66 292.899V229.027" stroke="black" stroke-miterlimit="10"/>
<path d="M169.727 47.396C171.09 47.396 172.195 46.2895 172.195 44.9246C172.195 43.5596 171.09 42.4531 169.727 42.4531C168.365 42.4531 167.26 43.5596 167.26 44.9246C167.26 46.2895 168.365 47.396 169.727 47.396Z" fill="#E8E8E8"/>
<path d="M169.727 30.8257C171.09 30.8257 172.195 29.7192 172.195 28.3543C172.195 26.9893 171.09 25.8828 169.727 25.8828C168.365 25.8828 167.26 26.9893 167.26 28.3543C167.26 29.7192 168.365 30.8257 169.727 30.8257Z" fill="#E8E8E8"/>
<path d="M153.182 63.9703C154.545 63.9703 155.65 62.8637 155.65 61.4988C155.65 60.1339 154.545 59.0273 153.182 59.0273C151.82 59.0273 150.715 60.1339 150.715 61.4988C150.715 62.8637 151.82 63.9703 153.182 63.9703Z" fill="#E8E8E8"/>
<path d="M153.182 47.396C154.545 47.396 155.65 46.2895 155.65 44.9246C155.65 43.5596 154.545 42.4531 153.182 42.4531C151.82 42.4531 150.715 43.5596 150.715 44.9246C150.715 46.2895 151.82 47.396 153.182 47.396Z" fill="#E8E8E8"/>
<path d="M153.182 30.8257C154.545 30.8257 155.65 29.7192 155.65 28.3543C155.65 26.9893 154.545 25.8828 153.182 25.8828C151.82 25.8828 150.715 26.9893 150.715 28.3543C150.715 29.7192 151.82 30.8257 153.182 30.8257Z" fill="#E8E8E8"/>
<path d="M136.636 97.1031C137.998 97.1031 139.103 95.9966 139.103 94.6316C139.103 93.2667 137.998 92.1602 136.636 92.1602C135.273 92.1602 134.168 93.2667 134.168 94.6316C134.168 95.9966 135.273 97.1031 136.636 97.1031Z" fill="#E8E8E8"/>
<path d="M136.636 80.5328C137.998 80.5328 139.103 79.4262 139.103 78.0613C139.103 76.6964 137.998 75.5898 136.636 75.5898C135.273 75.5898 134.168 76.6964 134.168 78.0613C134.168 79.4262 135.273 80.5328 136.636 80.5328Z" fill="#E8E8E8"/>
<path d="M136.636 63.9703C137.998 63.9703 139.103 62.8637 139.103 61.4988C139.103 60.1339 137.998 59.0273 136.636 59.0273C135.273 59.0273 134.168 60.1339 134.168 61.4988C134.168 62.8637 135.273 63.9703 136.636 63.9703Z" fill="#E8E8E8"/>
<path d="M136.636 47.396C137.998 47.396 139.103 46.2895 139.103 44.9246C139.103 43.5596 137.998 42.4531 136.636 42.4531C135.273 42.4531 134.168 43.5596 134.168 44.9246C134.168 46.2895 135.273 47.396 136.636 47.396Z" fill="#E8E8E8"/>
<path d="M136.636 30.8257C137.998 30.8257 139.103 29.7192 139.103 28.3543C139.103 26.9893 137.998 25.8828 136.636 25.8828C135.273 25.8828 134.168 26.9893 134.168 28.3543C134.168 29.7192 135.273 30.8257 136.636 30.8257Z" fill="#E8E8E8"/>
<path d="M120.1 97.1031C121.463 97.1031 122.568 95.9966 122.568 94.6316C122.568 93.2667 121.463 92.1602 120.1 92.1602C118.738 92.1602 117.633 93.2667 117.633 94.6316C117.633 95.9966 118.738 97.1031 120.1 97.1031Z" fill="#E8E8E8"/>
<path d="M120.1 80.5328C121.463 80.5328 122.568 79.4262 122.568 78.0613C122.568 76.6964 121.463 75.5898 120.1 75.5898C118.738 75.5898 117.633 76.6964 117.633 78.0613C117.633 79.4262 118.738 80.5328 120.1 80.5328Z" fill="#E8E8E8"/>
<path d="M103.554 97.1031C104.916 97.1031 106.021 95.9966 106.021 94.6316C106.021 93.2667 104.916 92.1602 103.554 92.1602C102.191 92.1602 101.086 93.2667 101.086 94.6316C101.086 95.9966 102.191 97.1031 103.554 97.1031Z" fill="#E8E8E8"/>
<path d="M169.727 13.3492C171.09 13.3492 172.195 12.2427 172.195 10.8777C172.195 9.51276 171.09 8.40625 169.727 8.40625C168.365 8.40625 167.26 9.51276 167.26 10.8777C167.26 12.2427 168.365 13.3492 169.727 13.3492Z" fill="#E8E8E8"/>
<path d="M186.265 47.396C187.627 47.396 188.732 46.2895 188.732 44.9246C188.732 43.5596 187.627 42.4531 186.265 42.4531C184.902 42.4531 183.797 43.5596 183.797 44.9246C183.797 46.2895 184.902 47.396 186.265 47.396Z" fill="#E8E8E8"/>
<path d="M186.265 30.8257C187.627 30.8257 188.732 29.7192 188.732 28.3543C188.732 26.9893 187.627 25.8828 186.265 25.8828C184.902 25.8828 183.797 26.9893 183.797 28.3543C183.797 29.7192 184.902 30.8257 186.265 30.8257Z" fill="#E8E8E8"/>
<path d="M186.407 47.396C187.77 47.396 188.875 46.2895 188.875 44.9246C188.875 43.5596 187.77 42.4531 186.407 42.4531C185.044 42.4531 183.939 43.5596 183.939 44.9246C183.939 46.2895 185.044 47.396 186.407 47.396Z" fill="#E8E8E8"/>
<path d="M186.407 30.8257C187.77 30.8257 188.875 29.7192 188.875 28.3543C188.875 26.9893 187.77 25.8828 186.407 25.8828C185.044 25.8828 183.939 26.9893 183.939 28.3543C183.939 29.7192 185.044 30.8257 186.407 30.8257Z" fill="#E8E8E8"/>
<path d="M153.182 13.3492C154.545 13.3492 155.65 12.2427 155.65 10.8777C155.65 9.51276 154.545 8.40625 153.182 8.40625C151.82 8.40625 150.715 9.51276 150.715 10.8777C150.715 12.2427 151.82 13.3492 153.182 13.3492Z" fill="#E8E8E8"/>
<path d="M217.593 248.634C218.955 248.634 220.06 247.528 220.06 246.163C220.06 244.798 218.955 243.691 217.593 243.691C216.23 243.691 215.125 244.798 215.125 246.163C215.125 247.528 216.23 248.634 217.593 248.634Z" fill="#E8E8E8"/>
<path d="M217.593 232.06C218.955 232.06 220.06 230.954 220.06 229.589C220.06 228.224 218.955 227.117 217.593 227.117C216.23 227.117 215.125 228.224 215.125 229.589C215.125 230.954 216.23 232.06 217.593 232.06Z" fill="#E8E8E8"/>
<path d="M217.593 149.224C218.955 149.224 220.06 148.118 220.06 146.753C220.06 145.388 218.955 144.281 217.593 144.281C216.23 144.281 215.125 145.388 215.125 146.753C215.125 148.118 216.23 149.224 217.593 149.224Z" fill="#E8E8E8"/>
<path d="M217.593 132.662C218.955 132.662 220.06 131.555 220.06 130.19C220.06 128.825 218.955 127.719 217.593 127.719C216.23 127.719 215.125 128.825 215.125 130.19C215.125 131.555 216.23 132.662 217.593 132.662Z" fill="#E8E8E8"/>
<path d="M201.048 232.06C202.411 232.06 203.515 230.954 203.515 229.589C203.515 228.224 202.411 227.117 201.048 227.117C199.685 227.117 198.58 228.224 198.58 229.589C198.58 230.954 199.685 232.06 201.048 232.06Z" fill="#E8E8E8"/>
<path d="M201.048 165.794C202.411 165.794 203.515 164.688 203.515 163.323C203.515 161.958 202.411 160.852 201.048 160.852C199.685 160.852 198.58 161.958 198.58 163.323C198.58 164.688 199.685 165.794 201.048 165.794Z" fill="#E8E8E8"/>
<path d="M201.048 149.224C202.411 149.224 203.515 148.118 203.515 146.753C203.515 145.388 202.411 144.281 201.048 144.281C199.685 144.281 198.58 145.388 198.58 146.753C198.58 148.118 199.685 149.224 201.048 149.224Z" fill="#E8E8E8"/>
<path d="M184.513 215.502C185.875 215.502 186.98 214.395 186.98 213.03C186.98 211.665 185.875 210.559 184.513 210.559C183.15 210.559 182.045 211.665 182.045 213.03C182.045 214.395 183.15 215.502 184.513 215.502Z" fill="#E8E8E8"/>
<path d="M184.513 165.794C185.875 165.794 186.98 164.688 186.98 163.323C186.98 161.958 185.875 160.852 184.513 160.852C183.15 160.852 182.045 161.958 182.045 163.323C182.045 164.688 183.15 165.794 184.513 165.794Z" fill="#E8E8E8"/>
<path d="M167.966 215.502C169.329 215.502 170.433 214.395 170.433 213.03C170.433 211.665 169.329 210.559 167.966 210.559C166.603 210.559 165.498 211.665 165.498 213.03C165.498 214.395 166.603 215.502 167.966 215.502Z" fill="#E8E8E8"/>
<path d="M167.966 198.927C169.329 198.927 170.433 197.821 170.433 196.456C170.433 195.091 169.329 193.984 167.966 193.984C166.603 193.984 165.498 195.091 165.498 196.456C165.498 197.821 166.603 198.927 167.966 198.927Z" fill="#E8E8E8"/>
<path d="M167.966 182.365C169.329 182.365 170.433 181.258 170.433 179.893C170.433 178.528 169.329 177.422 167.966 177.422C166.603 177.422 165.498 178.528 165.498 179.893C165.498 181.258 166.603 182.365 167.966 182.365Z" fill="#E8E8E8"/>
<path d="M167.966 165.794C169.329 165.794 170.433 164.688 170.433 163.323C170.433 161.958 169.329 160.852 167.966 160.852C166.603 160.852 165.498 161.958 165.498 163.323C165.498 164.688 166.603 165.794 167.966 165.794Z" fill="#E8E8E8"/>
<path d="M151.419 198.927C152.782 198.927 153.886 197.821 153.886 196.456C153.886 195.091 152.782 193.984 151.419 193.984C150.056 193.984 148.951 195.091 148.951 196.456C148.951 197.821 150.056 198.927 151.419 198.927Z" fill="#E8E8E8"/>
<path d="M151.419 182.365C152.782 182.365 153.886 181.258 153.886 179.893C153.886 178.528 152.782 177.422 151.419 177.422C150.056 177.422 148.951 178.528 148.951 179.893C148.951 181.258 150.056 182.365 151.419 182.365Z" fill="#E8E8E8"/>
<path d="M275.407 87.1382C276.77 87.1382 277.875 86.0317 277.875 84.6668C277.875 83.3018 276.77 82.1953 275.407 82.1953C274.044 82.1953 272.939 83.3018 272.939 84.6668C272.939 86.0317 274.044 87.1382 275.407 87.1382Z" fill="#E8E8E8"/>
<path d="M291.942 103.709C293.305 103.709 294.41 102.602 294.41 101.237C294.41 99.8721 293.305 98.7656 291.942 98.7656C290.579 98.7656 289.475 99.8721 289.475 101.237C289.475 102.602 290.579 103.709 291.942 103.709Z" fill="#E8E8E8"/>
<path d="M291.942 87.1382C293.305 87.1382 294.41 86.0317 294.41 84.6668C294.41 83.3018 293.305 82.1953 291.942 82.1953C290.579 82.1953 289.475 83.3018 289.475 84.6668C289.475 86.0317 290.579 87.1382 291.942 87.1382Z" fill="#E8E8E8"/>
<path d="M292.085 103.709C293.448 103.709 294.552 102.602 294.552 101.237C294.552 99.8721 293.448 98.7656 292.085 98.7656C290.722 98.7656 289.617 99.8721 289.617 101.237C289.617 102.602 290.722 103.709 292.085 103.709Z" fill="#E8E8E8"/>
<path d="M292.085 87.1382C293.448 87.1382 294.552 86.0317 294.552 84.6668C294.552 83.3018 293.448 82.1953 292.085 82.1953C290.722 82.1953 289.617 83.3018 289.617 84.6668C289.617 86.0317 290.722 87.1382 292.085 87.1382Z" fill="#E8E8E8"/>
<path d="M291.942 69.6617C293.305 69.6617 294.41 68.5552 294.41 67.1902C294.41 65.8253 293.305 64.7188 291.942 64.7188C290.579 64.7188 289.475 65.8253 289.475 67.1902C289.475 68.5552 290.579 69.6617 291.942 69.6617Z" fill="#E8E8E8"/>
<path d="M292.085 69.6617C293.448 69.6617 294.552 68.5552 294.552 67.1902C294.552 65.8253 293.448 64.7188 292.085 64.7188C290.722 64.7188 289.617 65.8253 289.617 67.1902C289.617 68.5552 290.722 69.6617 292.085 69.6617Z" fill="#E8E8E8"/>
<path d="M308.632 136.845C309.995 136.845 311.099 135.739 311.099 134.374C311.099 133.009 309.995 131.902 308.632 131.902C307.269 131.902 306.164 133.009 306.164 134.374C306.164 135.739 307.269 136.845 308.632 136.845Z" fill="#E8E8E8"/>
<path d="M308.632 120.271C309.995 120.271 311.099 119.165 311.099 117.8C311.099 116.435 309.995 115.328 308.632 115.328C307.269 115.328 306.164 116.435 306.164 117.8C306.164 119.165 307.269 120.271 308.632 120.271Z" fill="#E8E8E8"/>
<path d="M308.632 103.709C309.995 103.709 311.099 102.602 311.099 101.237C311.099 99.8721 309.995 98.7656 308.632 98.7656C307.269 98.7656 306.164 99.8721 306.164 101.237C306.164 102.602 307.269 103.709 308.632 103.709Z" fill="#E8E8E8"/>
<path d="M308.632 87.1382C309.995 87.1382 311.099 86.0317 311.099 84.6668C311.099 83.3018 309.995 82.1953 308.632 82.1953C307.269 82.1953 306.164 83.3018 306.164 84.6668C306.164 86.0317 307.269 87.1382 308.632 87.1382Z" fill="#E8E8E8"/>
<path d="M308.776 136.845C310.139 136.845 311.244 135.739 311.244 134.374C311.244 133.009 310.139 131.902 308.776 131.902C307.413 131.902 306.309 133.009 306.309 134.374C306.309 135.739 307.413 136.845 308.776 136.845Z" fill="#E8E8E8"/>
<path d="M308.776 120.271C310.139 120.271 311.244 119.165 311.244 117.8C311.244 116.435 310.139 115.328 308.776 115.328C307.413 115.328 306.309 116.435 306.309 117.8C306.309 119.165 307.413 120.271 308.776 120.271Z" fill="#E8E8E8"/>
<path d="M308.776 103.709C310.139 103.709 311.244 102.602 311.244 101.237C311.244 99.8721 310.139 98.7656 308.776 98.7656C307.413 98.7656 306.309 99.8721 306.309 101.237C306.309 102.602 307.413 103.709 308.776 103.709Z" fill="#E8E8E8"/>
<path d="M308.776 87.1382C310.139 87.1382 311.244 86.0317 311.244 84.6668C311.244 83.3018 310.139 82.1953 308.776 82.1953C307.413 82.1953 306.309 83.3018 306.309 84.6668C306.309 86.0317 307.413 87.1382 308.776 87.1382Z" fill="#E8E8E8"/>
<path d="M308.632 69.6617C309.995 69.6617 311.099 68.5552 311.099 67.1902C311.099 65.8253 309.995 64.7188 308.632 64.7188C307.269 64.7188 306.164 65.8253 306.164 67.1902C306.164 68.5552 307.269 69.6617 308.632 69.6617Z" fill="#E8E8E8"/>
<path d="M325.288 186.548C326.651 186.548 327.756 185.442 327.756 184.077C327.756 182.712 326.651 181.605 325.288 181.605C323.925 181.605 322.82 182.712 322.82 184.077C322.82 185.442 323.925 186.548 325.288 186.548Z" fill="#E8E8E8"/>
<path d="M325.288 169.978C326.651 169.978 327.756 168.872 327.756 167.507C327.756 166.142 326.651 165.035 325.288 165.035C323.925 165.035 322.82 166.142 322.82 167.507C322.82 168.872 323.925 169.978 325.288 169.978Z" fill="#E8E8E8"/>
<path d="M325.288 153.416C326.651 153.416 327.756 152.309 327.756 150.944C327.756 149.579 326.651 148.473 325.288 148.473C323.925 148.473 322.82 149.579 322.82 150.944C322.82 152.309 323.925 153.416 325.288 153.416Z" fill="#E8E8E8"/>
<path d="M325.288 136.845C326.651 136.845 327.756 135.739 327.756 134.374C327.756 133.009 326.651 131.902 325.288 131.902C323.925 131.902 322.82 133.009 322.82 134.374C322.82 135.739 323.925 136.845 325.288 136.845Z" fill="#E8E8E8"/>
<path d="M325.288 120.271C326.651 120.271 327.756 119.165 327.756 117.8C327.756 116.435 326.651 115.328 325.288 115.328C323.925 115.328 322.82 116.435 322.82 117.8C322.82 119.165 323.925 120.271 325.288 120.271Z" fill="#E8E8E8"/>
<path d="M325.288 103.709C326.651 103.709 327.756 102.602 327.756 101.237C327.756 99.8721 326.651 98.7656 325.288 98.7656C323.925 98.7656 322.82 99.8721 322.82 101.237C322.82 102.602 323.925 103.709 325.288 103.709Z" fill="#E8E8E8"/>
<path d="M325.288 87.1382C326.651 87.1382 327.756 86.0317 327.756 84.6668C327.756 83.3018 326.651 82.1953 325.288 82.1953C323.925 82.1953 322.82 83.3018 322.82 84.6668C322.82 86.0317 323.925 87.1382 325.288 87.1382Z" fill="#E8E8E8"/>
<path d="M325.432 186.548C326.795 186.548 327.9 185.442 327.9 184.077C327.9 182.712 326.795 181.605 325.432 181.605C324.07 181.605 322.965 182.712 322.965 184.077C322.965 185.442 324.07 186.548 325.432 186.548Z" fill="#E8E8E8"/>
<path d="M325.432 169.978C326.795 169.978 327.9 168.872 327.9 167.507C327.9 166.142 326.795 165.035 325.432 165.035C324.07 165.035 322.965 166.142 322.965 167.507C322.965 168.872 324.07 169.978 325.432 169.978Z" fill="#E8E8E8"/>
<path d="M325.432 153.416C326.795 153.416 327.9 152.309 327.9 150.944C327.9 149.579 326.795 148.473 325.432 148.473C324.07 148.473 322.965 149.579 322.965 150.944C322.965 152.309 324.07 153.416 325.432 153.416Z" fill="#E8E8E8"/>
<path d="M325.432 136.845C326.795 136.845 327.9 135.739 327.9 134.374C327.9 133.009 326.795 131.902 325.432 131.902C324.07 131.902 322.965 133.009 322.965 134.374C322.965 135.739 324.07 136.845 325.432 136.845Z" fill="#E8E8E8"/>
<path d="M325.432 120.271C326.795 120.271 327.9 119.165 327.9 117.8C327.9 116.435 326.795 115.328 325.432 115.328C324.07 115.328 322.965 116.435 322.965 117.8C322.965 119.165 324.07 120.271 325.432 120.271Z" fill="#E8E8E8"/>
<path d="M325.432 103.709C326.795 103.709 327.9 102.602 327.9 101.237C327.9 99.8721 326.795 98.7656 325.432 98.7656C324.07 98.7656 322.965 99.8721 322.965 101.237C322.965 102.602 324.07 103.709 325.432 103.709Z" fill="#E8E8E8"/>
<path d="M325.432 87.1382C326.795 87.1382 327.9 86.0317 327.9 84.6668C327.9 83.3018 326.795 82.1953 325.432 82.1953C324.07 82.1953 322.965 83.3018 322.965 84.6668C322.965 86.0317 324.07 87.1382 325.432 87.1382Z" fill="#E8E8E8"/>
<path d="M325.257 186.548C326.62 186.548 327.724 185.442 327.724 184.077C327.724 182.712 326.62 181.605 325.257 181.605C323.894 181.605 322.789 182.712 322.789 184.077C322.789 185.442 323.894 186.548 325.257 186.548Z" fill="#E8E8E8"/>
<path d="M325.257 169.978C326.62 169.978 327.724 168.872 327.724 167.507C327.724 166.142 326.62 165.035 325.257 165.035C323.894 165.035 322.789 166.142 322.789 167.507C322.789 168.872 323.894 169.978 325.257 169.978Z" fill="#E8E8E8"/>
<path d="M325.257 153.416C326.62 153.416 327.724 152.309 327.724 150.944C327.724 149.579 326.62 148.473 325.257 148.473C323.894 148.473 322.789 149.579 322.789 150.944C322.789 152.309 323.894 153.416 325.257 153.416Z" fill="#E8E8E8"/>
<path d="M325.257 136.845C326.62 136.845 327.724 135.739 327.724 134.374C327.724 133.009 326.62 131.902 325.257 131.902C323.894 131.902 322.789 133.009 322.789 134.374C322.789 135.739 323.894 136.845 325.257 136.845Z" fill="#E8E8E8"/>
<path d="M325.257 120.271C326.62 120.271 327.724 119.165 327.724 117.8C327.724 116.435 326.62 115.328 325.257 115.328C323.894 115.328 322.789 116.435 322.789 117.8C322.789 119.165 323.894 120.271 325.257 120.271Z" fill="#E8E8E8"/>
<path d="M325.257 103.709C326.62 103.709 327.724 102.602 327.724 101.237C327.724 99.8721 326.62 98.7656 325.257 98.7656C323.894 98.7656 322.789 99.8721 322.789 101.237C322.789 102.602 323.894 103.709 325.257 103.709Z" fill="#E8E8E8"/>
<path d="M325.257 87.1382C326.62 87.1382 327.724 86.0317 327.724 84.6668C327.724 83.3018 326.62 82.1953 325.257 82.1953C323.894 82.1953 322.789 83.3018 322.789 84.6668C322.789 86.0317 323.894 87.1382 325.257 87.1382Z" fill="#E8E8E8"/>
<path d="M325.399 186.548C326.762 186.548 327.867 185.442 327.867 184.077C327.867 182.712 326.762 181.605 325.399 181.605C324.036 181.605 322.932 182.712 322.932 184.077C322.932 185.442 324.036 186.548 325.399 186.548Z" fill="#E8E8E8"/>
<path d="M325.399 169.978C326.762 169.978 327.867 168.872 327.867 167.507C327.867 166.142 326.762 165.035 325.399 165.035C324.036 165.035 322.932 166.142 322.932 167.507C322.932 168.872 324.036 169.978 325.399 169.978Z" fill="#E8E8E8"/>
<path d="M325.399 153.416C326.762 153.416 327.867 152.309 327.867 150.944C327.867 149.579 326.762 148.473 325.399 148.473C324.036 148.473 322.932 149.579 322.932 150.944C322.932 152.309 324.036 153.416 325.399 153.416Z" fill="#E8E8E8"/>
<path d="M325.399 136.845C326.762 136.845 327.867 135.739 327.867 134.374C327.867 133.009 326.762 131.902 325.399 131.902C324.036 131.902 322.932 133.009 322.932 134.374C322.932 135.739 324.036 136.845 325.399 136.845Z" fill="#E8E8E8"/>
<path d="M325.399 120.271C326.762 120.271 327.867 119.165 327.867 117.8C327.867 116.435 326.762 115.328 325.399 115.328C324.036 115.328 322.932 116.435 322.932 117.8C322.932 119.165 324.036 120.271 325.399 120.271Z" fill="#E8E8E8"/>
<path d="M325.399 103.709C326.762 103.709 327.867 102.602 327.867 101.237C327.867 99.8721 326.762 98.7656 325.399 98.7656C324.036 98.7656 322.932 99.8721 322.932 101.237C322.932 102.602 324.036 103.709 325.399 103.709Z" fill="#E8E8E8"/>
<path d="M325.399 87.1382C326.762 87.1382 327.867 86.0317 327.867 84.6668C327.867 83.3018 326.762 82.1953 325.399 82.1953C324.036 82.1953 322.932 83.3018 322.932 84.6668C322.932 86.0317 324.036 87.1382 325.399 87.1382Z" fill="#E8E8E8"/>
<path d="M341.946 203.119C343.309 203.119 344.414 202.012 344.414 200.647C344.414 199.282 343.309 198.176 341.946 198.176C340.583 198.176 339.479 199.282 339.479 200.647C339.479 202.012 340.583 203.119 341.946 203.119Z" fill="#E8E8E8"/>
<path d="M341.946 186.548C343.309 186.548 344.414 185.442 344.414 184.077C344.414 182.712 343.309 181.605 341.946 181.605C340.583 181.605 339.479 182.712 339.479 184.077C339.479 185.442 340.583 186.548 341.946 186.548Z" fill="#E8E8E8"/>
<path d="M341.946 169.978C343.309 169.978 344.414 168.872 344.414 167.507C344.414 166.142 343.309 165.035 341.946 165.035C340.583 165.035 339.479 166.142 339.479 167.507C339.479 168.872 340.583 169.978 341.946 169.978Z" fill="#E8E8E8"/>
<path d="M341.946 153.416C343.309 153.416 344.414 152.309 344.414 150.944C344.414 149.579 343.309 148.473 341.946 148.473C340.583 148.473 339.479 149.579 339.479 150.944C339.479 152.309 340.583 153.416 341.946 153.416Z" fill="#E8E8E8"/>
<path d="M341.946 136.845C343.309 136.845 344.414 135.739 344.414 134.374C344.414 133.009 343.309 131.902 341.946 131.902C340.583 131.902 339.479 133.009 339.479 134.374C339.479 135.739 340.583 136.845 341.946 136.845Z" fill="#E8E8E8"/>
<path d="M341.946 120.271C343.309 120.271 344.414 119.165 344.414 117.8C344.414 116.435 343.309 115.328 341.946 115.328C340.583 115.328 339.479 116.435 339.479 117.8C339.479 119.165 340.583 120.271 341.946 120.271Z" fill="#E8E8E8"/>
<path d="M342.089 203.119C343.452 203.119 344.556 202.012 344.556 200.647C344.556 199.282 343.452 198.176 342.089 198.176C340.726 198.176 339.621 199.282 339.621 200.647C339.621 202.012 340.726 203.119 342.089 203.119Z" fill="#E8E8E8"/>
<path d="M342.089 186.548C343.452 186.548 344.556 185.442 344.556 184.077C344.556 182.712 343.452 181.605 342.089 181.605C340.726 181.605 339.621 182.712 339.621 184.077C339.621 185.442 340.726 186.548 342.089 186.548Z" fill="#E8E8E8"/>
<path d="M342.089 169.978C343.452 169.978 344.556 168.872 344.556 167.507C344.556 166.142 343.452 165.035 342.089 165.035C340.726 165.035 339.621 166.142 339.621 167.507C339.621 168.872 340.726 169.978 342.089 169.978Z" fill="#E8E8E8"/>
<path d="M342.089 153.416C343.452 153.416 344.556 152.309 344.556 150.944C344.556 149.579 343.452 148.473 342.089 148.473C340.726 148.473 339.621 149.579 339.621 150.944C339.621 152.309 340.726 153.416 342.089 153.416Z" fill="#E8E8E8"/>
<path d="M342.089 136.845C343.452 136.845 344.556 135.739 344.556 134.374C344.556 133.009 343.452 131.902 342.089 131.902C340.726 131.902 339.621 133.009 339.621 134.374C339.621 135.739 340.726 136.845 342.089 136.845Z" fill="#E8E8E8"/>
<path d="M342.089 120.271C343.452 120.271 344.556 119.165 344.556 117.8C344.556 116.435 343.452 115.328 342.089 115.328C340.726 115.328 339.621 116.435 339.621 117.8C339.621 119.165 340.726 120.271 342.089 120.271Z" fill="#E8E8E8"/>
<path d="M358.591 186.548C359.954 186.548 361.058 185.442 361.058 184.077C361.058 182.712 359.954 181.605 358.591 181.605C357.228 181.605 356.123 182.712 356.123 184.077C356.123 185.442 357.228 186.548 358.591 186.548Z" fill="#E8E8E8"/>
<path d="M358.591 169.978C359.954 169.978 361.058 168.872 361.058 167.507C361.058 166.142 359.954 165.035 358.591 165.035C357.228 165.035 356.123 166.142 356.123 167.507C356.123 168.872 357.228 169.978 358.591 169.978Z" fill="#E8E8E8"/>
<path d="M358.745 186.548C360.108 186.548 361.213 185.442 361.213 184.077C361.213 182.712 360.108 181.605 358.745 181.605C357.382 181.605 356.277 182.712 356.277 184.077C356.277 185.442 357.382 186.548 358.745 186.548Z" fill="#E8E8E8"/>
<path d="M358.745 169.978C360.108 169.978 361.213 168.872 361.213 167.507C361.213 166.142 360.108 165.035 358.745 165.035C357.382 165.035 356.277 166.142 356.277 167.507C356.277 168.872 357.382 169.978 358.745 169.978Z" fill="#E8E8E8"/>
<path d="M80.9141 291.267L62.6602 272.984V291.267H80.9141Z" fill="#00AC8D"/>
<path d="M82.0493 269.785V282.716L75.5938 276.251L82.0493 269.785Z" fill="#374EA1"/>
<path d="M84.7152 253.633H75.5938V262.768H84.7152V253.633Z" fill="#ED3E7A"/>
<path d="M75.5938 276.251L82.0493 269.786L75.5938 263.32V276.251Z" fill="#F58A1F"/>
<path d="M75.6039 235.352L66.4824 244.487L75.6039 253.634V235.352Z" fill="#983F96"/>
<path d="M75.5934 285.941V260.09L62.6934 273.021L75.5934 285.941Z" fill="#FFC332"/>
<path d="M86.8511 236.578L78.9415 241.146L75.6035 253.636L83.5022 249.057L86.8511 236.578Z" fill="#0080C5"/>
<path d="M195.626 103.215H188.543V110.309H195.626V103.215Z" fill="#ED3E7A"/>
<path d="M118.525 161.514H106.902V149.863L118.525 161.514Z" fill="#FFC332"/>
<path d="M294.157 92.8775L287.988 86.6989L294.157 80.5312V92.8775Z" fill="#F58A1F"/>
<path d="M240.914 178.75H252.9V190.754L240.914 178.75Z" fill="#983F96"/>
<path d="M157.212 36.1211V52.4173H140.941L157.212 36.1211Z" fill="#0080C5"/>
<path d="M319.053 215.945L337.946 215.934L337.957 234.867L319.053 215.945Z" fill="#983F96"/>
<path d="M321.818 218.715L335.181 232.098H321.818V218.715Z" fill="#374EA1"/>
<path d="M343.42 265.293L333.973 274.758L343.423 284.22L352.87 274.755L343.42 265.293Z" fill="#ED3E7A"/>
<path d="M335.852 291.844H349.214V278.461L335.852 291.844Z" fill="#F58A1F"/>
<path d="M310.262 251.031H348.07L329.177 232.098L310.262 251.031Z" fill="#FFC332"/>
<path d="M329.166 251.031L355.903 277.809V251.031H329.166Z" fill="#00AC8D"/>
<path d="M369.265 291.192V277.797L355.902 264.414V277.797L369.265 291.192Z" fill="#0080C5"/>
</g>
<defs>
<clipPath id="clip0_2122_3136">
<rect width="404" height="293" fill="white"/>
</clipPath>
</defs>
</svg>
