<svg width="387" height="317" viewBox="0 0 387 317" fill="none" xmlns="http://www.w3.org/2000/svg">
<g clip-path="url(#clip0_2122_3112)">
<path d="M101.559 299.156H120.585V280.109L101.559 299.156Z" fill="#983F96"/>
<path d="M137.596 317.001L124.131 303.539H137.596V317.001Z" fill="#374EA1"/>
<path d="M126.899 233.68L117.385 243.199L126.899 252.718L136.413 243.199L126.899 233.68Z" fill="#ED3E7A"/>
<path d="M106.392 299.043V312.515H92.9375L106.392 299.043Z" fill="#F58A1F"/>
<path d="M147.506 303.541L120.586 276.617V303.541H147.506Z" fill="#FFC332"/>
<path d="M130.821 248.773L130.832 286.857L111.795 267.82L130.821 248.773Z" fill="#00AC8D"/>
<path d="M136.404 243.219L145.933 233.695H164.96L155.441 243.219H136.404Z" fill="#0080C5"/>
<path d="M387 314.953H0" stroke="black" stroke-miterlimit="10"/>
<path d="M194.613 120.512C194.613 120.512 224.636 138.999 224.636 162.871V217.552" stroke="black" stroke-miterlimit="10"/>
<path d="M261.189 184.039C261.189 184.039 248.874 205.599 244.252 224.857" stroke="black" stroke-miterlimit="10"/>
<path d="M236.306 144.129L235.926 217.54" stroke="black" stroke-miterlimit="10"/>
<path d="M240.803 217.539C249.266 172.878 268.514 133.602 268.514 133.602" stroke="black" stroke-miterlimit="10"/>
<path d="M186.15 175.179C186.15 175.179 201.547 157.462 217.703 175.179C217.703 175.179 226.166 183.646 228.477 220.611" stroke="black" stroke-miterlimit="10"/>
<path d="M248.726 121.734H223.695V146.778H248.726V121.734Z" fill="#ED3E7A"/>
<path d="M307.379 135.873H266.287V94.7695L307.379 135.873Z" fill="#FFC332"/>
<path d="M282.548 205.125L260.777 183.332L282.548 161.551V205.125Z" fill="#F58A1F"/>
<path d="M151.125 168.633H193.463V210.992L151.125 168.633Z" fill="#983F96"/>
<path d="M195.004 89.9648V120.763H164.211L195.004 89.9648Z" fill="#0080C5"/>
<path d="M260.431 216.391V243.272L269.939 248.034V314.244H201.262V248.034L210.78 243.272V216.391H260.431Z" fill="black" stroke="black" stroke-miterlimit="10"/>
<path d="M64.9727 314.202V126.339C64.9727 57.1405 121.556 0.527344 190.708 0.527344H207.582C276.745 0.527344 333.328 57.1405 333.328 126.339V314.212" stroke="black" stroke-miterlimit="10"/>
<path d="M64.9727 314.202V126.339C64.9727 57.1405 121.556 0.527344 190.708 0.527344H207.582C276.745 0.527344 333.328 57.1405 333.328 126.339V314.212" stroke="black" stroke-miterlimit="10"/>
</g>
<defs>
<clipPath id="clip0_2122_3112">
<rect width="387" height="317" fill="white"/>
</clipPath>
</defs>
</svg>
