<svg width="376" height="352" viewBox="0 0 376 352" fill="none" xmlns="http://www.w3.org/2000/svg">
<g clip-path="url(#clip0_2122_3034)">
<path d="M376 342.895H0" stroke="black" stroke-miterlimit="10"/>
<mask id="mask0_2122_3034" style="mask-type:luminance" maskUnits="userSpaceOnUse" x="48" y="37" width="261" height="306">
<path d="M48.0352 342.175V159.48C48.0352 92.1893 103.011 37.1367 170.207 37.1367H186.601C253.798 37.1367 308.773 92.1893 308.773 159.48V342.175" fill="white"/>
</mask>
<g mask="url(#mask0_2122_3034)">
<path d="M275.944 254.414C273.156 255.636 270.203 256.262 267.137 256.262C255.049 256.262 245.217 246.416 245.217 234.301C245.217 226.015 249.872 218.489 257.182 214.752V214.352C257.182 205.779 261.488 197.719 268.542 192.914C267.619 190.86 267.137 188.653 267.137 186.415C267.137 177.605 274.294 170.449 283.091 170.449C291.887 170.449 299.034 177.605 299.034 186.415C299.034 188.653 298.562 190.86 297.639 192.914C304.693 197.729 308.999 205.779 308.999 214.352V214.752C316.31 218.489 320.964 226.025 320.964 234.301C320.964 246.416 311.132 256.262 299.034 256.262C296.06 256.262 293.169 255.677 290.452 254.507" fill="white"/>
<path d="M275.944 254.414C273.156 255.636 270.203 256.262 267.137 256.262C255.049 256.262 245.217 246.416 245.217 234.301C245.217 226.015 249.872 218.489 257.182 214.752V214.352C257.182 205.779 261.488 197.719 268.542 192.914C267.619 190.86 267.137 188.653 267.137 186.415C267.137 177.605 274.294 170.449 283.091 170.449C291.887 170.449 299.034 177.605 299.034 186.415C299.034 188.653 298.562 190.86 297.639 192.914C304.693 197.729 308.999 205.779 308.999 214.352V214.752C316.31 218.489 320.964 226.025 320.964 234.301C320.964 246.416 311.132 256.262 299.034 256.262C296.06 256.262 293.169 255.677 290.452 254.507" stroke="black" stroke-miterlimit="10"/>
<path d="M281.665 221.401L274.119 213.352" stroke="black" stroke-miterlimit="10"/>
<path d="M289.57 220.418L281.521 227.975" stroke="black" stroke-miterlimit="10"/>
<path d="M281.666 210.57V288.283" stroke="black" stroke-miterlimit="10"/>
<path d="M328.12 233.53C326.654 233.53 325.25 233.756 323.917 234.157C323.937 233.818 323.968 233.489 323.968 233.15C323.968 225.224 317.55 218.797 309.635 218.797C301.719 218.797 295.301 225.224 295.301 233.15C295.301 233.428 295.332 233.695 295.342 233.961C294.235 233.684 293.097 233.53 291.908 233.53C283.992 233.53 277.574 239.958 277.574 247.884C277.574 255.81 283.992 262.237 291.908 262.237C292.554 262.237 293.189 262.176 293.815 262.094C297.106 267.607 303.124 271.303 310.014 271.303C316.904 271.303 322.922 267.607 326.213 262.094C326.839 262.176 327.474 262.237 328.12 262.237C336.036 262.237 342.454 255.81 342.454 247.884C342.454 239.958 336.036 233.53 328.12 233.53Z" fill="white" stroke="black" stroke-miterlimit="10"/>
<path d="M317.365 252.043L309.829 259.6L302.283 252.043" fill="white"/>
<path d="M317.365 252.043L309.829 259.6L302.283 252.043" stroke="black" stroke-miterlimit="10"/>
<path d="M306.161 270.707C306.71 270.707 307.155 270.261 307.155 269.711C307.155 269.161 306.71 268.715 306.161 268.715C305.611 268.715 305.166 269.161 305.166 269.711C305.166 270.261 305.611 270.707 306.161 270.707Z" fill="#E8E8E8"/>
<path d="M306.161 264.011C306.71 264.011 307.155 263.565 307.155 263.015C307.155 262.465 306.71 262.02 306.161 262.02C305.611 262.02 305.166 262.465 305.166 263.015C305.166 263.565 305.611 264.011 306.161 264.011Z" fill="#E8E8E8"/>
<path d="M306.161 230.531C306.71 230.531 307.155 230.085 307.155 229.535C307.155 228.985 306.71 228.539 306.161 228.539C305.611 228.539 305.166 228.985 305.166 229.535C305.166 230.085 305.611 230.531 306.161 230.531Z" fill="#E8E8E8"/>
<path d="M306.161 223.836C306.71 223.836 307.155 223.39 307.155 222.84C307.155 222.29 306.71 221.844 306.161 221.844C305.611 221.844 305.166 222.29 305.166 222.84C305.166 223.39 305.611 223.836 306.161 223.836Z" fill="#E8E8E8"/>
<path d="M299.475 264.011C300.024 264.011 300.47 263.565 300.47 263.015C300.47 262.465 300.024 262.02 299.475 262.02C298.926 262.02 298.48 262.465 298.48 263.015C298.48 263.565 298.926 264.011 299.475 264.011Z" fill="#E8E8E8"/>
<path d="M299.475 237.222C300.024 237.222 300.47 236.776 300.47 236.226C300.47 235.676 300.024 235.23 299.475 235.23C298.926 235.23 298.48 235.676 298.48 236.226C298.48 236.776 298.926 237.222 299.475 237.222Z" fill="#E8E8E8"/>
<path d="M299.475 230.531C300.024 230.531 300.47 230.085 300.47 229.535C300.47 228.985 300.024 228.539 299.475 228.539C298.926 228.539 298.48 228.985 298.48 229.535C298.48 230.085 298.926 230.531 299.475 230.531Z" fill="#E8E8E8"/>
<path d="M292.791 257.316C293.341 257.316 293.786 256.87 293.786 256.32C293.786 255.77 293.341 255.324 292.791 255.324C292.242 255.324 291.797 255.77 291.797 256.32C291.797 256.87 292.242 257.316 292.791 257.316Z" fill="#E8E8E8"/>
<path d="M292.791 237.222C293.341 237.222 293.786 236.776 293.786 236.226C293.786 235.676 293.341 235.23 292.791 235.23C292.242 235.23 291.797 235.676 291.797 236.226C291.797 236.776 292.242 237.222 292.791 237.222Z" fill="#E8E8E8"/>
<path d="M286.096 257.316C286.645 257.316 287.091 256.87 287.091 256.32C287.091 255.77 286.645 255.324 286.096 255.324C285.547 255.324 285.102 255.77 285.102 256.32C285.102 256.87 285.547 257.316 286.096 257.316Z" fill="#E8E8E8"/>
<path d="M286.096 250.613C286.645 250.613 287.091 250.167 287.091 249.617C287.091 249.067 286.645 248.621 286.096 248.621C285.547 248.621 285.102 249.067 285.102 249.617C285.102 250.167 285.547 250.613 286.096 250.613Z" fill="#E8E8E8"/>
<path d="M286.096 243.918C286.645 243.918 287.091 243.472 287.091 242.922C287.091 242.372 286.645 241.926 286.096 241.926C285.547 241.926 285.102 242.372 285.102 242.922C285.102 243.472 285.547 243.918 286.096 243.918Z" fill="#E8E8E8"/>
<path d="M286.096 237.222C286.645 237.222 287.091 236.776 287.091 236.226C287.091 235.676 286.645 235.23 286.096 235.23C285.547 235.23 285.102 235.676 285.102 236.226C285.102 236.776 285.547 237.222 286.096 237.222Z" fill="#E8E8E8"/>
<path d="M279.411 250.613C279.96 250.613 280.405 250.167 280.405 249.617C280.405 249.067 279.96 248.621 279.411 248.621C278.861 248.621 278.416 249.067 278.416 249.617C278.416 250.167 278.861 250.613 279.411 250.613Z" fill="#E8E8E8"/>
<path d="M279.411 243.918C279.96 243.918 280.405 243.472 280.405 242.922C280.405 242.372 279.96 241.926 279.411 241.926C278.861 241.926 278.416 242.372 278.416 242.922C278.416 243.472 278.861 243.918 279.411 243.918Z" fill="#E8E8E8"/>
<path d="M297.28 211.938H294.42V214.802H297.28V211.938Z" fill="#ED3E7A"/>
<path d="M266.112 235.502H261.416V230.789L266.112 235.502Z" fill="#FFC332"/>
<path d="M281.748 184.82V191.402H275.176L281.748 184.82Z" fill="#0080C5"/>
<path d="M105.821 39.582C116.863 39.582 126.829 44.0277 134.15 51.3688C141.347 58.5866 145.91 68.556 145.91 79.737C145.91 90.7947 141.347 100.898 134.15 108.115C126.829 115.323 116.863 119.892 105.821 119.892C94.656 119.892 84.6903 115.323 77.3698 108.115L77.2468 107.992C70.0493 100.661 65.5996 90.6818 65.5996 79.737C65.5996 68.6792 70.1621 58.5866 77.3595 51.3688C84.68 44.038 94.6457 39.582 105.811 39.582H105.821Z" stroke="black" stroke-miterlimit="10"/>
<path d="M174.238 60.9883L152.748 65.1876" stroke="black" stroke-miterlimit="10"/>
<path d="M144.228 139.48L133.668 120.25" stroke="black" stroke-miterlimit="10"/>
<path d="M158.88 46.9219L146.986 52.9282" stroke="black" stroke-miterlimit="10"/>
<path d="M156.952 115.446L146.75 106.914" stroke="black" stroke-miterlimit="10"/>
<path d="M81.4492 137.202L87.5701 125.426" stroke="black" stroke-miterlimit="10"/>
<path d="M63.3223 125.548L73.1649 116.523" stroke="black" stroke-miterlimit="10"/>
<path d="M43.3906 76.4922L56.5962 78.176" stroke="black" stroke-miterlimit="10"/>
<path d="M53.1113 46.082L63.6819 54.1418" stroke="black" stroke-miterlimit="10"/>
<path d="M176.401 86.7192L154.799 82.9922" stroke="black" stroke-miterlimit="10"/>
<path d="M117.345 149.829L115.305 128.062" stroke="black" stroke-miterlimit="10"/>
<path d="M41.1152 109.069L61.6413 101.379" stroke="black" stroke-miterlimit="10"/>
<path d="M60.8008 24.6836L73.4014 42.5998" stroke="black" stroke-miterlimit="10"/>
<path d="M245.637 288.621H307.389" stroke="black" stroke-miterlimit="10"/>
</g>
<path d="M48.0352 342.175V159.48C48.0352 92.1893 103.011 37.1367 170.207 37.1367H186.601C253.798 37.1367 308.773 92.1893 308.773 159.48V342.175" stroke="black" stroke-miterlimit="10"/>
<path d="M153.135 218.762C153.135 218.762 172.246 230.538 172.246 245.754V280.591" stroke="black" stroke-miterlimit="10"/>
<path d="M195.532 259.246C195.532 259.246 187.688 272.984 184.756 285.253" stroke="black" stroke-miterlimit="10"/>
<path d="M179.679 233.816L179.443 280.594" stroke="black" stroke-miterlimit="10"/>
<path d="M182.541 280.594C187.934 252.133 200.186 227.102 200.186 227.102" stroke="black" stroke-miterlimit="10"/>
<path d="M147.752 253.601C147.752 253.601 157.554 242.317 167.847 253.601C167.847 253.601 173.24 259.001 174.706 282.554" stroke="black" stroke-miterlimit="10"/>
<path d="M187.595 219.543H171.652V235.508H187.595V219.543Z" fill="#ED3E7A"/>
<path d="M224.926 228.547H198.771V202.355L224.926 228.547Z" fill="#FFC332"/>
<path d="M209.125 272.677L195.264 258.795L209.125 244.914V272.677Z" fill="#F58A1F"/>
<path d="M125.453 249.43H152.408V276.422L125.453 249.43Z" fill="#983F96"/>
<path d="M153.382 199.297V218.928H133.789L153.382 199.297Z" fill="#0080C5"/>
<path d="M195.038 279.852V296.987L201.097 300.016V342.214H157.369V300.016L163.429 296.987V279.852H195.038Z" fill="black" stroke="black" stroke-miterlimit="10"/>
<path d="M221.676 125.946C217.483 125.946 214.068 129.365 214.068 133.564C214.068 137.764 217.483 141.183 221.676 141.183H258.801C264.307 141.183 268.777 136.696 268.777 131.193C268.777 125.69 264.297 121.203 258.801 121.203C258.207 121.203 257.612 121.254 257.027 121.357L256.566 121.439L256.382 121.008C254.085 115.792 248.928 112.414 243.227 112.414C237.014 112.414 231.529 116.387 229.581 122.291L229.427 122.763L228.935 122.692C226.669 122.353 224.526 123.626 223.696 125.71L223.511 126.162L223.04 126.08C222.578 125.998 222.127 125.956 221.676 125.956V125.946Z" fill="#E8E8E8"/>
<path d="M110.762 162.98C107.952 162.98 105.666 165.27 105.666 168.083C105.666 170.896 107.952 173.186 110.762 173.186H135.625C139.305 173.186 142.309 170.188 142.309 166.491C142.309 162.795 139.316 159.797 135.625 159.797C135.225 159.797 134.825 159.828 134.435 159.9L134.128 159.951L134.005 159.664C132.467 156.173 129.012 153.914 125.198 153.914C121.035 153.914 117.364 156.573 116.062 160.526L115.96 160.844L115.632 160.793C114.114 160.567 112.679 161.419 112.125 162.816L112.002 163.113L111.684 163.052C111.377 163.001 111.069 162.97 110.772 162.97L110.762 162.98Z" fill="#E8E8E8"/>
<path d="M102.364 305.215L87.0977 320.492L102.364 335.78V305.215Z" fill="#983F96"/>
<path d="M69.9844 346.581L85.2508 331.293V346.581H69.9844Z" fill="#374EA1"/>
<path d="M87.1134 255.625L76.3203 266.438L87.1171 277.246L97.9102 266.434L87.1134 255.625Z" fill="#ED3E7A"/>
<path d="M96.9707 352.002L107.767 341.19L96.9707 330.379V352.002Z" fill="#F58A1F"/>
<path d="M87.1079 277.258L87.0977 320.493L108.69 298.88L87.1079 277.258Z" fill="#FFC332"/>
<path d="M87.0967 277.258L56.5742 307.833H87.0967V277.258Z" fill="#00AC8D"/>
<path d="M76.3008 340.256L87.097 329.444V307.832L76.3008 318.643V340.256Z" fill="#0080C5"/>
</g>
<defs>
<clipPath id="clip0_2122_3034">
<rect width="376" height="352" fill="white"/>
</clipPath>
</defs>
</svg>
