<svg height="658" width="2500" xmlns="http://www.w3.org/2000/svg" viewBox="0.5 0.3 1550.3 407.09999999999997"><g><path d="M245.5 122.9L368 .3H123v245.2L.5 368.1h245V245.5z" fill="#2b256c"/><path d="M245.5 122.9v122.6H368V.3zM.5 368.1L123 245.5V122.9H.5z" fill="#00b098"/><g fill="#737d92" fill-rule="evenodd"><path d="M826.5 165v25h-25v-25zm-40.5 0v25h-25v-25zm-75-19.6h-98.5v22.3h-64.6c-21.3 0-35.1-4.3-46-14.6-8.8-8.3-12-22.6-12-37.1V60.4h27.3V113c0 10.5 1.9 18.2 7.5 22.9 6 5.2 16.7 6.8 27.2 6.8h37.3V41.2h23.3v12.4h50.4c16.1 0 28.8 3.9 37.7 13.4 7.5 8.1 10.4 21.3 10.4 36zm-25-43.5c0-7.2-1.7-12.4-4.9-16.5-3-3.9-9.2-7-15.7-7h-52.9v41.9H686zm152.2 43.5H737.9V.3h25v120h50.2V44.6h25.1zM1016.8.4v145h-25V.4zM666.1 8.5v24.9h-24.9V8.5zM1475.6.4v25.3h-25V.4zm74.8 164.8v25h-25.1v-25zm-450.2-34.3c-8.8-8.2-12-22.6-12-37v-34h27.7v30.9c0 10.6 2 18.3 7.5 22.9 6.1 5.2 16.1 6.8 26.7 6.8h142L1291.9.4h25l.3 120.1h133.4V44.8h25.1v75.7h49.8V44.8h25v100.6h-404.9c-21.3 0-34.5-4.1-45.4-14.5zm130.1-45.8h-40.9V62.6c0-8.9 2.1-15.9 6.3-20.6 4.3-4.9 10.5-7.4 18.3-7.4h12.3v14.5h-13.8c-2.5 0-4.5.9-6 2.8-1.7 2-2.6 4.9-2.6 8.7v10h26.4zm-376 99.6c-4.4 0-9.2-.6-12.2-1.5v-24.6c3.5.8 6.4 1.1 9.6 1.1 10 0 13.4-5.2 13.4-17.6V44.6h25v75.7h49.8V.3h25v145.1h-75c-1.4 27.5-12 39.3-35.6 39.3zm-282 119l40.1 64.5h-30.6l-37.5-60.7h-27.1v60.7h-27.3V214.5h57.6c39.9 0 56 22.7 56 46.4 0 17.6-8.3 35.2-31.2 42.8zm2.4-42.2c0-15.4-10.7-21.6-33.3-21.6h-24.2v43.9h24.2c20.1 0 33.3-4.5 33.3-22.3zM898.3 303.5v58.3c-12.6 5-28.8 7.8-43.6 7.8-25 0-47.4-8.7-47.4-33.2 0-22.4 19.4-34 46.5-34 5.4 0 12.1.3 19.6 1.4v-1.4c0-11.4-9.4-14.6-23.1-14.6-10.3 0-25.4 4.1-35.2 8.9l3.2-25.4c8-3.9 21.5-7.5 35.4-7.5 25.7 0 44.6 10.5 44.6 39.7zm-24.9 20.6c-4.6-1.3-11.4-2.1-16.9-2.1-12.6 0-23.3 3.2-23.3 12.8 0 9.2 9.6 12.4 21.9 12.4 6.2 0 13-1.1 18.3-2.8zM992 223.2h24.9v141.2c-12.3 3.4-25.8 5.2-40.2 5.2-36.9 0-58.4-22.8-58.4-52.6 0-29.9 22.4-53.2 56.5-53.2 4.4 0 10.5.5 17.2 1.4zm0 67c-6-1.6-11-2.1-15.5-2.1-19.5 0-32.1 9.4-32.1 28.8s12.6 28.3 32.1 28.3c4.8 0 10-.7 15.5-2zm-231-23.1h24.9v92.7c0 35.4-12.4 47.6-52.1 47.6-6.8 0-17.7-1.5-25.7-3.5v-23.8c9 2.6 19.5 4.4 26.8 4.4 15.3 0 26.1-5 26.1-16.7v-2.2c-6.7 1.5-13.5 2.2-19.9 2.2-25.4 0-43.5-8.2-43.5-41.1v-59.6h25v52.5c0 18.3 5.9 23.8 19.8 23.8 5.3 0 11.3-.5 18.6-2.6zm556.2 36.2v58.4c-12.6 5-28.8 7.8-43.6 7.8-25 0-47.4-8.7-47.4-33.3 0-22.4 19.4-33.9 46.5-33.9 5.4 0 12.1.3 19.6 1.4v-1.4c0-11.4-9.4-14.6-23.1-14.6-10.3 0-25.4 4.1-35.2 8.9l3.2-25.5c8-3.9 21.5-7.4 35.4-7.4 25.7 0 44.6 10.5 44.6 39.6zm-24.9 20.7c-4.6-1.3-11.4-2.2-16.9-2.2-12.6 0-23.3 3.2-23.3 12.8 0 9.3 9.6 12.5 21.9 12.5 6.2 0 13-1.1 18.3-2.9zm136.3-18.5v62.6h-24.8v-55.5c0-18.3-7.7-23.8-22.4-23.8-5.4 0-11.9.7-19 2v77.3h-24.9v-98.5c15.4-2.8 34.1-5.2 44.9-5.2 25.6 0 46.2 8.2 46.2 41.1zm122.2 62.6h-29.9l-47.1-49.4v49.4h-24.9V223.9h24.9v93.4L1519 268h29.5l-45.5 49.6zM1205.9 323.1c0 32.2-27.9 45.1-55.9 45.1h-61.5V214.5h53.9c38.3 0 55.5 17 55.5 38.6 0 12.9-6.8 26-21.4 32.4 20.7 6.3 29.4 22 29.4 37.6zm-90.1-46.7h24.9c20.1 0 29-6 29-18.5 0-10.6-8.1-18-29-18h-24.9zm61.9 46c0-16.1-12.2-20.5-32.2-20.5h-29.7v40.8h30.4c21.4 0 31.5-6.3 31.5-20.3zM666.2 268v100.1h-24.9V268zm0-44.9V248h-24.9v-24.9z"/></g></g></svg>