<svg width="249" height="59" viewBox="0 0 249 59" fill="none" xmlns="http://www.w3.org/2000/svg">
<g clip-path="url(#clip0_388_5513)">
<path d="M15.6191 39.7877H12.6711C9.46453 39.7877 6.82688 37.1592 6.82688 33.9638V18.4508H15.6191C17.5327 18.4508 19.0325 16.9046 19.0325 15.0492C19.0325 13.1938 17.4809 11.6477 15.6191 11.6477H6.82688V3.40154C6.82688 1.49462 5.27531 0 3.41344 0C1.55156 0 0 1.54615 0 3.40154V33.9638C0 40.9215 5.63734 46.5908 12.6711 46.5908H15.6191C17.5327 46.5908 19.0325 45.0446 19.0325 43.1892C19.0325 41.2823 17.4809 39.7361 15.5673 39.7361L15.6191 39.7877Z" fill="#434444"/>
<path d="M248.89 43.7041L241.649 50.971L248.89 58.2379V43.7041Z" fill="#F5891F"/>
<path d="M241.636 36.4008L234.322 43.6895L241.636 50.9781L248.95 43.6895L241.636 36.4008Z" fill="#ED407B"/>
<path d="M227.064 7.36968H241.649L234.357 0.154297L227.064 7.36968Z" fill="#394FA1"/>
<path d="M241.649 36.4378V7.37012L227.064 21.904L241.649 36.4378Z" fill="#FFC334"/>
<path d="M227.064 21.904V7.42166L241.649 7.37012L227.064 21.904Z" fill="#974095"/>
<path d="M227.064 50.971V21.9033L241.649 36.4372L227.064 50.971Z" fill="#04AB8B"/>
<path d="M227.064 50.971L220.031 57.9287V39.0141L227.064 32.0049V50.971Z" fill="#0081C5"/>
<path d="M39.1511 33.9636C39.1511 37.159 36.5134 39.7875 33.2552 39.7875C29.9969 39.7875 27.3592 37.159 27.3592 33.9636V24.2228C27.3592 21.0275 29.9969 18.399 33.2552 18.399C36.5134 18.399 39.1511 21.0275 39.1511 24.2228V33.9636ZM46.0297 24.2744C46.0297 17.3167 40.2889 11.6475 33.2034 11.6475C26.118 11.6475 20.3772 17.3167 20.3772 24.2744V34.0152C20.3772 40.9728 26.118 46.6421 33.2034 46.6421C40.2889 46.6421 37.703 46.0236 39.6166 44.9413C40.1855 45.9721 41.3233 46.6421 42.5645 46.6421C44.4781 46.6421 46.0297 45.1475 46.0297 43.2405V24.2744Z" fill="#434444"/>
<path d="M57.3044 18.3988H63.2003C66.4586 18.3988 69.0963 21.0272 69.0963 24.2226V43.1888C69.0963 45.0442 70.6478 46.5903 72.5614 46.5903C74.475 46.5903 76.0266 45.0957 76.0266 43.1888V24.2226C76.0266 17.2649 70.2858 11.5957 63.2003 11.5957H53.8392C51.9256 11.5957 50.3741 13.0903 50.3741 14.9972V43.1888C50.3741 45.0442 51.9256 46.5903 53.8392 46.5903C55.7528 46.5903 57.3044 45.0957 57.3044 43.1888V18.3988Z" fill="#434444"/>
<path d="M116.988 24.2744C116.988 21.079 119.626 18.4505 122.832 18.4505H125.78C127.694 18.4505 129.193 16.9044 129.193 15.049C129.193 13.1936 127.642 11.6475 125.78 11.6475H122.832C115.85 11.6475 110.109 17.3167 110.109 24.3259V43.2405C110.109 45.1475 111.661 46.6421 113.523 46.6421C115.385 46.6421 116.936 45.0959 116.936 43.2405V24.2744H116.988Z" fill="#434444"/>
<path d="M105.765 24.2226C105.765 17.2649 100.128 11.5957 93.0938 11.5957C86.06 11.5957 80.4227 17.2134 80.4227 24.2226V33.9119C80.4227 40.8695 86.06 46.5388 93.0938 46.5388C100.128 46.5388 97.1795 45.9719 98.938 45.0957V45.5595C98.938 48.7549 96.3003 51.3834 93.0938 51.3834H90.1458C88.2322 51.3834 86.7324 52.9295 86.7324 54.7849C86.7324 56.6403 88.2839 58.1865 90.1458 58.1865H93.0938C100.076 58.1865 105.765 52.5688 105.765 45.5595V24.2742V24.2226ZM98.9897 33.9634C98.9897 37.1588 96.352 39.7872 93.1455 39.7872C89.9389 39.7872 87.3013 37.1588 87.3013 33.9634V24.2742C87.3013 21.0788 89.9389 18.4503 93.1455 18.4503C96.352 18.4503 98.9897 21.0788 98.9897 24.2742V33.9634Z" fill="#434444"/>
<path d="M148.847 33.9636C148.847 37.159 146.209 39.7875 142.951 39.7875C139.692 39.7875 137.055 37.159 137.055 33.9636V24.2228C137.055 21.0275 139.692 18.399 142.951 18.399C146.209 18.399 148.847 21.0275 148.847 24.2228V33.9636ZM155.777 24.2744C155.777 17.3167 150.036 11.6475 142.951 11.6475C135.865 11.6475 130.124 17.3167 130.124 24.2744V34.0152C130.124 40.9728 135.865 46.6421 142.951 46.6421C150.036 46.6421 147.45 46.0236 149.364 44.9413C149.933 45.9721 151.07 46.6421 152.312 46.6421C154.225 46.6421 155.777 45.1475 155.777 43.2405V24.2744Z" fill="#434444"/>
<path d="M172.792 11.6475C165.81 11.6475 160.121 17.2652 160.121 24.2744V43.189C160.121 45.0959 161.673 46.5905 163.535 46.5905C165.397 46.5905 166.948 45.0444 166.948 43.189V24.2744C166.948 21.079 169.586 18.4505 172.792 18.4505H178.688V43.189C178.688 45.0959 180.24 46.5905 182.102 46.5905C184.015 46.5905 185.515 45.0444 185.515 43.189V18.4505H191.359C194.566 18.4505 197.204 21.079 197.204 24.2744V43.189C197.204 45.0959 198.755 46.5905 200.617 46.5905C202.479 46.5905 204.03 45.0444 204.03 43.189V24.2744C204.03 17.3167 198.393 11.6475 191.359 11.6475H172.948H172.792Z" fill="#434444"/>
</g>
<defs>
<clipPath id="clip0_388_5513">
<rect width="248.95" height="58.2379" fill="white"/>
</clipPath>
</defs>
</svg>
