<svg width="96" height="98" viewBox="0 0 96 98" fill="none" xmlns="http://www.w3.org/2000/svg">
<g clip-path="url(#clip0_782_228983)">
<g clip-path="url(#clip1_782_228983)">
<g clip-path="url(#clip2_782_228983)">
<mask id="mask0_782_228983" style="mask-type:luminance" maskUnits="userSpaceOnUse" x="0" y="0" width="96" height="97">
<path d="M95.9483 0.986328H0.238281V96.6963H95.9483V0.986328Z" fill="white"/>
</mask>
<g mask="url(#mask0_782_228983)">
<path d="M84.0792 12.8463C76.4392 5.19632 66.2592 0.986328 55.4492 0.986328C44.6392 0.986328 34.4592 5.19632 26.8092 12.8463C19.1592 20.4963 14.9492 30.6663 14.9492 41.4863C14.9492 52.3063 19.1592 62.4763 26.8092 70.1263C34.4592 77.7763 44.6292 81.9863 55.4492 81.9863C66.2692 81.9863 76.4392 77.7763 84.0892 70.1263C91.7392 62.4763 95.9492 52.3063 95.9492 41.4863C95.9492 30.6663 91.7392 20.4963 84.0892 12.8463H84.0792Z" fill="#00AF86"/>
<path d="M44.2116 5.47562C47.7616 4.36562 51.5316 3.76562 55.4416 3.76562C59.3516 3.76562 63.1216 4.36562 66.6716 5.47562L69.2816 10.1956L55.4416 16.0956L41.6016 10.1856L44.2116 5.46563V5.47562Z" fill="#3B60AF"/>
<path d="M17.7266 41.1453C17.7966 33.2853 20.2766 25.9953 24.4766 19.9753L30.3166 18.9453L31.4666 33.9653L21.3766 45.1453L17.7366 41.1453H17.7266Z" fill="#3B60AF"/>
<path d="M44.5494 77.5966C36.9494 75.2966 30.3594 70.6666 25.6094 64.5366L26.0494 59.8066L40.8394 62.6666L48.9594 75.3566L44.5494 77.6066V77.5966Z" fill="#3B60AF"/>
<path d="M46.8916 55.5667L41.6016 39.2267L55.4516 29.1367L69.2916 39.2367L64.0016 55.5667H46.8916Z" fill="#3B60AF"/>
<path d="M66.3397 77.5969L61.9297 75.3469L70.0497 62.6569L84.8397 59.7969L85.2797 64.5269C80.5297 70.6569 73.9397 75.2969 66.3397 77.5869V77.5969Z" fill="#3B60AF"/>
<path d="M79.4297 33.9673L80.5797 18.9473L86.4197 19.9773C90.6097 25.9973 93.0997 33.2873 93.1697 41.1473L89.5297 45.1473L79.4397 33.9673H79.4297Z" fill="#3B60AF"/>
<path d="M0.949219 95.9864L16.8793 80.0664" stroke="black" stroke-width="2" stroke-miterlimit="10"/>
<path d="M0.949219 69.9256L10.3593 60.5156" stroke="black" stroke-width="2" stroke-miterlimit="10"/>
<path d="M34.1875 95.697L41.4275 88.457" stroke="black" stroke-width="2" stroke-miterlimit="10"/>
</g>
</g>
</g>
</g>
<defs>
<clipPath id="clip0_782_228983">
<rect width="96" height="97" fill="white" transform="translate(0 0.390625)"/>
</clipPath>
<clipPath id="clip1_782_228983">
<rect width="96" height="97" fill="white" transform="translate(0 0.390625)"/>
</clipPath>
<clipPath id="clip2_782_228983">
<rect width="96" height="97" fill="white" transform="translate(0 0.390625)"/>
</clipPath>
</defs>
</svg>
