<svg width="96" height="94" viewBox="0 0 96 94" fill="none" xmlns="http://www.w3.org/2000/svg">
<g clip-path="url(#clip0_782_229053)">
<g clip-path="url(#clip1_782_229053)">
<mask id="mask0_782_229053" style="mask-type:luminance" maskUnits="userSpaceOnUse" x="0" y="0" width="96" height="93">
<path d="M95.2578 0.65625H0.257812V92.9863H95.2578V0.65625Z" fill="white"/>
</mask>
<g mask="url(#mask0_782_229053)">
<path d="M31.6478 30.5962C32.5478 30.4662 33.3178 29.9062 33.7178 29.0862L47.7478 0.65625L61.7878 29.0962C62.1878 29.9062 62.9678 30.4762 63.8578 30.6062L95.2478 35.1662L72.5178 57.2962C71.8678 57.9262 71.5778 58.8362 71.7278 59.7362L77.0878 90.9962L49.0178 76.2362C48.2178 75.8162 47.2578 75.8162 46.4578 76.2362L18.3878 90.9962L23.7478 59.7362C23.8978 58.8462 23.6078 57.9362 22.9578 57.2962L0.257812 35.1562L31.6478 30.5962Z" fill="#F6C531"/>
<path d="M47.7578 7.48633V18.4863" stroke="black" stroke-miterlimit="10"/>
<path d="M31.4375 27.7148L23.4375 19.7148" stroke="black" stroke-miterlimit="10"/>
<path d="M22.5703 38.7656H12.5703" stroke="black" stroke-miterlimit="10"/>
<path d="M82.2266 38.7656H72.2266" stroke="black" stroke-miterlimit="10"/>
<path d="M72.0703 19.7168L64.0703 27.7168" stroke="black" stroke-miterlimit="10"/>
<path d="M61.9983 92.9855V75.0855C61.9983 73.3055 60.5383 71.8555 58.7583 71.8555H42.4683C40.6883 71.8555 39.2383 73.3055 39.2383 75.0855V92.9855H61.9983Z" fill="#0D81BF"/>
<path d="M41.009 38.1562C39.479 38.1562 37.889 39.3363 37.889 40.6463L37.819 53.3063C37.819 54.1863 36.489 54.1863 36.499 53.3063L36.529 47.3162C36.079 47.4362 35.669 47.5862 35.389 47.8862C34.829 48.4862 34.529 49.2363 34.319 49.9663C34.119 50.7063 33.999 51.4563 33.849 52.0763C33.709 52.6963 33.519 53.1663 33.359 53.3563C33.329 53.3863 33.299 53.4263 33.279 53.4563C32.039 55.5263 31.879 57.5863 32.389 59.4163C32.889 61.2463 34.009 62.8563 35.259 64.2663C36.509 65.6763 37.879 66.8963 38.949 67.8863C39.479 68.3763 39.919 68.8163 40.229 69.1763C40.489 69.5463 40.739 69.8363 41.539 69.8363H59.299C60.559 69.8363 60.919 69.5063 60.919 68.2163V67.2262C60.949 64.7162 61.539 63.7063 62.169 61.0263C62.799 58.3463 63.419 54.1363 63.419 45.3763C63.419 42.4663 61.909 40.5463 60.209 40.0963C58.819 39.7263 57.769 39.9163 57.299 41.1763C56.909 39.6063 55.549 38.9263 54.089 39.0963C52.609 39.2663 51.559 39.7663 51.119 41.0763C50.819 39.3463 49.539 38.2663 47.879 38.2363C46.439 38.2163 45.249 39.2463 44.589 40.6663C43.789 39.1063 42.479 38.0963 41.029 38.1763L41.009 38.1562Z" fill="#0D81BF"/>
</g>
</g>
</g>
<defs>
<clipPath id="clip0_782_229053">
<rect width="96" height="93" fill="white" transform="translate(0 0.390625)"/>
</clipPath>
<clipPath id="clip1_782_229053">
<rect width="96" height="93" fill="white" transform="translate(0 0.390625)"/>
</clipPath>
</defs>
</svg>
