<svg width="97" height="85" viewBox="0 0 97 85" fill="none" xmlns="http://www.w3.org/2000/svg">
<g clip-path="url(#clip0_782_229022)">
<g clip-path="url(#clip1_782_229022)">
<mask id="mask0_782_229022" style="mask-type:luminance" maskUnits="userSpaceOnUse" x="0" y="0" width="97" height="84">
<path d="M96.4883 0.867188H0.238281V83.7272H96.4883V0.867188Z" fill="white"/>
</mask>
<g mask="url(#mask0_782_229022)">
<path d="M55.7912 82.7277C66.2412 71.3677 74.8813 57.1677 74.2612 40.5077C79.2212 39.4277 85.9913 38.6577 96.4813 40.5077C96.4813 40.5077 94.6312 79.3977 55.7812 82.7277H55.7912Z" fill="#F58532"/>
<path d="M40.94 82.7277C30.49 71.3677 21.85 57.1677 22.47 40.5077C17.51 39.4277 10.74 38.6577 0.25 40.5077C0.25 40.5077 2.1 79.3977 40.95 82.7277H40.94Z" fill="#F58532"/>
<path d="M48.9677 82.4585C48.9677 82.4585 48.9377 82.4585 48.9177 82.4385H48.9077C48.6677 82.2285 42.8777 77.4585 37.2377 69.9685C34.0577 65.7385 31.5177 61.4385 29.6977 57.1785C27.4777 51.9985 26.3077 46.8685 26.2377 41.9385C26.1677 36.9985 27.1877 31.8685 29.2677 26.6885C30.9777 22.4485 33.3977 18.1685 36.4777 13.9685C41.8877 6.56852 47.4677 1.92852 47.7077 1.73852C47.7077 1.73852 47.7277 1.72852 47.7477 1.72852C47.7677 1.72852 47.7877 1.72852 47.7977 1.74852H47.8077C48.1277 2.01852 53.8078 6.70852 59.3978 14.1285C62.5978 18.3685 65.1478 22.6885 66.9878 26.9485C69.2278 32.1485 70.3977 37.2985 70.4777 42.2485C70.5477 47.1985 69.5277 52.3285 67.4478 57.5085C65.7378 61.7485 63.3177 66.0285 60.2378 70.2285C54.9178 77.5085 49.4277 82.1085 49.0277 82.4385H49.0077C49.0077 82.4385 48.9777 82.4685 48.9577 82.4685L48.9677 82.4585Z" fill="#F6BD31"/>
<path d="M72.8594 15.4281L86.7094 1.57812" stroke="black" stroke-width="2" stroke-miterlimit="10"/>
<path d="M23.7075 20.4284L14.9375 11.6484" stroke="black" stroke-width="2" stroke-miterlimit="10"/>
<path d="M14.8594 82.7285H86.8594" stroke="black" stroke-width="2" stroke-miterlimit="10"/>
</g>
</g>
</g>
<defs>
<clipPath id="clip0_782_229022">
<rect width="97" height="84" fill="white" transform="translate(0 0.390625)"/>
</clipPath>
<clipPath id="clip1_782_229022">
<rect width="97" height="84" fill="white" transform="translate(0 0.390625)"/>
</clipPath>
</defs>
</svg>
